HIERARCHY
ROOT root
{
	OFFSET 0.000000 0.000000 0.000000
	CHANNELS 6 Xposition Yposition Zposition Zrotation Yrotation Xrotation
	JOINT lhip
	{
		OFFSET 0.058581 -0.082280 -0.017664
		CHANNELS 3 Zrotation Yrotation Xrotation
		JOINT lknee
		{
			OFFSET 0.043451 -0.386469 0.008037
			CHANNELS 3 Zrotation Yrotation Xrotation
			JOINT lankle
			{
				OFFSET -0.014790 -0.426874 -0.037428
				CHANNELS 3 Zrotation Yrotation Xrotation
				JOINT ltoe
				{
					OFFSET 0.041054 -0.060286 0.122042
					CHANNELS 3 Zrotation Yrotation Xrotation
					End Site
					{
						OFFSET 0.000000 0.000000 0.000000
					}
				}
			}
		}
	}
	JOINT rhip
	{
		OFFSET -0.060310 -0.090513 -0.013543
		CHANNELS 3 Zrotation Yrotation Xrotation
		JOINT rknee
		{
			OFFSET -0.043257 -0.383688 -0.004843
			CHANNELS 3 Zrotation Yrotation Xrotation
			JOINT rankle
			{
				OFFSET 0.019056 -0.420046 -0.034562
				CHANNELS 3 Zrotation Yrotation Xrotation
				JOINT rtoe
				{
					OFFSET -0.034840 -0.062106 0.130323
					CHANNELS 3 Zrotation Yrotation Xrotation
					End Site
					{
						OFFSET 0.000000 0.000000 0.000000
					}
				}
			}
		}
	}
	JOINT lowerback
	{
		OFFSET 0.004439 0.124404 -0.038385
		CHANNELS 3 Zrotation Yrotation Xrotation
		JOINT upperback
		{
			OFFSET 0.004488 0.137956 0.026820
			CHANNELS 3 Zrotation Yrotation Xrotation
			JOINT chest
			{
				OFFSET -0.002265 0.056032 0.002855
				CHANNELS 3 Zrotation Yrotation Xrotation
				JOINT lowerneck
				{
					OFFSET -0.013390 0.211636 -0.033468
					CHANNELS 3 Zrotation Yrotation Xrotation
					JOINT upperneck
					{
						OFFSET 0.010113 0.088937 0.050410
						CHANNELS 3 Zrotation Yrotation Xrotation
						End Site
						{
							OFFSET 0.000000 0.000000 0.000000
						}
					}
				}
				JOINT lclavicle
				{
					OFFSET 0.071702 0.114000 -0.018898
					CHANNELS 3 Zrotation Yrotation Xrotation
					JOINT lshoulder
					{
						OFFSET 0.122921 0.045205 -0.019046
						CHANNELS 3 Zrotation Yrotation Xrotation
						JOINT lelbow
						{
							OFFSET 0.255332 -0.015649 -0.022946
							CHANNELS 3 Zrotation Yrotation Xrotation
							JOINT lwrist
							{
								OFFSET 0.265709 0.012698 -0.007375
								CHANNELS 3 Zrotation Yrotation Xrotation
								End Site
								{
									OFFSET 0.000000 0.000000 0.000000
								}
							}
						}
					}
				}
				JOINT rclavicle
				{
					OFFSET -0.082954 0.112472 -0.023707
					CHANNELS 3 Zrotation Yrotation Xrotation
					JOINT rshoulder
					{
						OFFSET -0.113228 0.046853 -0.008472
						CHANNELS 3 Zrotation Yrotation Xrotation
						JOINT relbow
						{
							OFFSET -0.260127 -0.014369 -0.031269
							CHANNELS 3 Zrotation Yrotation Xrotation
							JOINT rwrist
							{
								OFFSET -0.269108 0.006794 -0.006027
								CHANNELS 3 Zrotation Yrotation Xrotation
								End Site
								{
									OFFSET 0.000000 0.000000 0.000000
								}
							}
						}
					}
				}
			}
		}
	}
}
MOTION
Frames: 7
Frame Time: 0.033333
0.074221 0.254581 1.006535 -168.768547 0.258097 87.945674 8.042593 3.439639 2.318330 0.722321 -5.983430 1.383698 -5.871757 0.765413 -7.559358 0.000000 -0.000000 0.000000 -2.804930 -5.995741 3.530218 0.247532 -5.260187 6.412695 6.701542 1.196118 -9.054724 0.000000 -0.000000 0.000000 3.313930 0.549026 -7.035149 6.153848 -1.234357 -16.371126 6.436359 -0.525972 -4.059496 1.094134 -4.746436 19.884116 5.128103 2.382000 -0.987063 10.833631 11.173711 3.974280 -62.213534 -2.347370 18.924321 -99.708007 -61.376876 115.068559 -3.508962 -34.714151 -55.425308 -10.714106 -7.464868 -0.470223 52.481471 2.552272 21.026957 110.466708 57.882301 122.452773 3.487456 31.744283 -52.866061 
0.075951 0.254424 1.007044 -168.503479 0.343340 87.714046 8.302346 3.466495 2.534262 0.728096 -5.834744 1.292338 -6.037566 0.217189 -7.361574 0.000000 -0.000000 0.000000 -2.606982 -6.089779 3.809732 0.183592 -5.691425 6.416883 6.545548 1.486084 -9.065504 0.000000 -0.000000 0.000000 3.162332 0.640262 -7.567789 6.524644 -1.494666 -16.199868 6.571860 -0.342350 -4.401045 1.344795 -4.627167 19.556720 4.841693 1.971608 -0.448113 11.402022 7.057746 3.794695 -63.531977 -5.122436 20.047172 -95.674711 -61.969347 111.358734 -3.974775 -35.671765 -56.315734 -11.370296 -3.489904 -0.060820 53.609648 6.613394 21.452603 105.229381 57.948025 118.808943 4.275589 32.131926 -52.071218 
0.076950 0.254084 1.007543 -168.361936 0.376764 87.429438 8.425557 3.611199 2.760557 0.801304 -5.768700 1.292358 -6.141476 -0.184005 -7.252396 0.000000 -0.000000 0.000000 -2.518646 -6.099184 4.052823 0.161302 -5.936718 6.524082 6.341119 1.673453 -9.095932 0.000000 -0.000000 0.000000 3.388708 0.630391 -7.668166 6.569588 -1.628402 -16.101414 6.683279 0.017620 -4.761430 1.212409 -4.710636 19.501644 4.913116 2.046874 -0.625624 12.421887 4.197148 3.334355 -64.439159 -6.967370 21.144624 -92.771979 -62.009683 108.181462 -4.303239 -36.376280 -58.135168 -12.422576 -0.391505 -0.348641 54.540934 9.206066 22.106428 101.948958 57.480468 115.578747 5.556872 33.468211 -53.036950 
0.078418 0.254478 1.007658 -168.215586 0.366539 87.072797 8.581765 3.820154 2.968801 0.800411 -5.763062 1.422511 -6.437724 -0.494646 -7.125438 0.000000 -0.000000 0.000000 -2.375210 -5.911600 4.416421 0.098286 -6.135146 6.547682 6.161674 1.612350 -9.106220 0.000000 -0.000000 0.000000 3.592670 0.576650 -7.728222 6.590953 -1.743012 -15.664767 6.854116 0.289703 -5.092332 1.142095 -4.711299 19.517038 5.103603 2.581537 -1.126401 13.455906 2.049735 2.785625 -64.638374 -7.884983 21.559312 -90.950365 -61.855651 106.377434 -4.067115 -36.347842 -58.139415 -13.788358 2.163414 -0.877302 55.365293 11.105324 22.429418 99.369343 57.475695 112.207086 5.551941 34.014641 -54.361076 
0.079373 0.254880 1.007726 -168.041349 0.341127 86.863521 8.666947 3.807348 3.060331 0.760023 -5.896872 1.569675 -6.506273 -0.565609 -7.116599 0.000000 -0.000000 0.000000 -2.377271 -6.071156 4.684284 0.153088 -5.998151 6.482270 6.156343 1.477150 -9.106515 0.000000 -0.000000 0.000000 3.551361 0.635122 -7.763974 6.650143 -1.865123 -15.309780 6.962315 0.206123 -5.292291 1.215990 -4.832678 19.563897 5.197342 3.173443 -1.274130 13.970427 1.752820 2.691422 -64.380192 -7.954473 21.527334 -91.078670 -61.577076 106.439134 -3.903593 -36.314475 -58.467662 -14.181833 2.629319 -1.249210 55.261766 11.658245 22.395858 98.831926 57.622671 111.321600 6.458107 34.466372 -54.119740 
0.080608 0.255244 1.007744 -167.954026 0.305311 86.820503 8.715037 3.738409 2.915070 0.717997 -6.048515 1.829005 -6.382194 -0.398112 -7.209084 0.000000 -0.000000 0.000000 -2.343362 -6.124608 4.639365 0.198882 -5.770960 6.610471 6.117024 1.200346 -9.157365 0.000000 -0.000000 0.000000 3.532570 0.697520 -7.796423 6.846825 -1.874702 -15.303180 7.174049 0.185348 -5.195222 1.303974 -4.660760 19.699570 5.204546 3.722948 -1.472675 14.504069 2.160903 2.688972 -63.840286 -7.417332 21.237644 -91.947880 -60.899727 106.888613 -3.574566 -36.194991 -58.752661 -14.660376 2.257343 -1.379951 54.405478 11.503651 21.989772 100.168249 57.795702 112.654441 7.064146 34.659651 -52.944416 
0.081991 0.255094 1.007848 -167.580148 0.308864 87.009040 8.775375 3.691513 2.201041 0.630435 -6.393155 2.528626 -6.375236 -0.333629 -7.374426 0.000000 -0.000000 0.000000 -2.217789 -6.274245 4.434385 0.227304 -5.609810 6.583458 6.096742 0.857862 -9.181897 0.000000 -0.000000 0.000000 3.421841 0.732929 -7.855631 7.131556 -1.956701 -15.461150 7.477275 -0.037862 -5.042910 1.317172 -4.321125 20.270362 5.133172 4.403930 -2.193736 14.842231 3.281325 3.008076 -63.216845 -6.180454 20.621407 -93.483657 -60.172863 107.702292 -3.722521 -35.679172 -58.666833 -15.099748 0.765179 -1.377688 52.941570 10.499609 21.416304 103.492520 57.552659 115.451707 5.676301 33.633602 -52.792178 
